<?xml version="1.0" encoding="UTF-8" standalone="no"?>
<!-- Generator: Adobe Illustrator 16.0.4, SVG Export Plug-In . SVG Version: 6.00 Build 0)  -->

<svg
   xmlns:osb="http://www.openswatchbook.org/uri/2009/osb"
   xmlns:dc="http://purl.org/dc/elements/1.1/"
   xmlns:cc="http://creativecommons.org/ns#"
   xmlns:rdf="http://www.w3.org/1999/02/22-rdf-syntax-ns#"
   xmlns:svg="http://www.w3.org/2000/svg"
   xmlns="http://www.w3.org/2000/svg"
   xmlns:xlink="http://www.w3.org/1999/xlink"
   xmlns:sodipodi="http://sodipodi.sourceforge.net/DTD/sodipodi-0.dtd"
   xmlns:inkscape="http://www.inkscape.org/namespaces/inkscape"
   version="1.1"
   x="0px"
   y="0px"
   width="214.25px"
   height="214.25px"
   viewBox="0 0 214.25 214.25"
   enable-background="new 0 0 214.25 214.25"
   xml:space="preserve"
   id="svg130"
   sodipodi:docname="garuda.svg"
   inkscape:version="0.92.2 (5c3e80d, 2017-08-06)"><metadata
     id="metadata136"><rdf:RDF><cc:Work
         rdf:about=""><dc:format>image/svg+xml</dc:format><dc:type
           rdf:resource="http://purl.org/dc/dcmitype/StillImage" /></cc:Work></rdf:RDF></metadata><defs
     id="defs134"><linearGradient
       inkscape:collect="always"
       id="linearGradient6173"><stop
         style="stop-color:#cdffd2;stop-opacity:1"
         offset="0"
         id="stop6169" /><stop
         style="stop-color:#cd5500;stop-opacity:1"
         offset="1"
         id="stop6171" /></linearGradient><linearGradient
       id="linearGradient4654"
       inkscape:collect="always"
       osb:paint="gradient"><stop
         id="stop4658"
         offset="0"
         style="stop-color:#ff2a2a;stop-opacity:1;" /><stop
         id="stop4660"
         offset="1"
         style="stop-color:#ff2a2a;stop-opacity:0;" /></linearGradient><radialGradient
       inkscape:collect="always"
       xlink:href="#linearGradient6173"
       id="radialGradient6179"
       cx="107.229"
       cy="106.3985"
       fx="107.229"
       fy="106.3985"
       r="99.928001"
       gradientTransform="matrix(1,0,0,1.000015,0,-0.00159713)"
       gradientUnits="userSpaceOnUse" /></defs><sodipodi:namedview
     pagecolor="#ffffff"
     bordercolor="#666666"
     borderopacity="1"
     objecttolerance="10"
     gridtolerance="10"
     guidetolerance="10"
     inkscape:pageopacity="0"
     inkscape:pageshadow="2"
     inkscape:window-width="2736"
     inkscape:window-height="1699"
     id="namedview132"
     showgrid="false"
     inkscape:zoom="1.1015169"
     inkscape:cx="-153.87871"
     inkscape:cy="107.125"
     inkscape:window-x="-13"
     inkscape:window-y="-13"
     inkscape:window-maximized="1"
     inkscape:current-layer="svg130" /><g
     id="Layer_1"
     display="none"><circle
       display="inline"
       fill="#FF6418"
       cx="107.125"
       cy="106.25"
       r="99.781"
       id="circle2" /></g><g
     id="Layer_1_copy_6"
     display="none" /><g
     id="Layer_1_copy_5"
     display="none" /><g
     id="Layer_1_copy_4"
     display="none" /><g
     id="Layer_1_copy_3"
     display="none" /><g
     id="Layer_1_copy_2"
     display="none" /><g
     id="Layer_1_copy"
     display="none" /><g
     id="Layer_5"
     display="none"><g
       display="inline"
       id="g25"><g
         id="g21"><g
           id="g19"><defs
             id="defs12"><rect
               id="SVGID_1_"
               x="59.278"
               y="32.369"
               width="95.396"
               height="131.381" /></defs><clipPath
             id="SVGID_2_"><use
               xlink:href="#SVGID_1_"
               overflow="visible"
               id="use14" /></clipPath><path
             clip-path="url(#SVGID_2_)"
             fill="#FFFFFF"
             d="M149.936,60.172h-24.69v-9.68c0-10.134-8.237-18.369-18.359-18.369      c-10.132,0-18.369,8.234-18.369,18.369v9.68H63.805l-4.527,103.519h95.184L149.936,60.172z M92.65,50.493      c0-7.853,6.392-14.237,14.235-14.237s14.225,6.394,14.225,14.237v9.68H92.65V50.493z M92.65,50.493"
             id="path17" /></g></g><path
         fill="#FF6418"
         d="M80.229,106.251c0-14.774,11.971-26.751,26.742-26.751c14.778,0,26.752,11.978,26.752,26.751    c0,14.771-11.974,26.743-26.752,26.743C92.2,132.994,80.229,121.022,80.229,106.251z M124.18,97.475    c-2.956-0.929-2.149-3.179-2.149-3.179s-2.113,1.879-1.127,3.882c-4.688,1.544-6.542,6.53-6.542,6.53    c-2.286-8.567-13.595-19.544-25.107-12.189c7.646-3.109,16.141,0.279,18.435,8.247c-3.341-1.457-6.923-1.172-9.776,1.223    c5.044-2.057,13.517,1.604,13.361,9.698c-0.144,7.677-8.792,15.948-22.43,4.83c7.443,13.429,25.408,9.549,29.333-2.089    c1.965-5.061,1.372-12.427,5.149-13.393c3.051-0.779,4.021,1.3,4.021,1.3S128.385,98.289,124.18,97.475z"
         id="path23" /></g></g><g
     id="Layer_3"
     display="none"><g
       display="inline"
       id="g64"><path
         fill="#FF6418"
         d="M122.174,169.22c0.06,0.047,0.016,0.021,0.113,0.061C122.229,169.231,122.274,169.259,122.174,169.22z"
         id="path28" /><path
         fill="#FF6418"
         d="M131.094,153.333c0.003-1.122,0.113-1.93,0.692-2.36c0.639-0.476,2.177-0.347,3.224-0.346    c2.456-0.021,4.912-0.04,7.368-0.056c0.047-2.119-0.75-3.188-1.209-4.781c-0.1-0.348-0.007-1.056,0.059-1.323    c0.02-0.689,0.039-1.38,0.056-2.071c0.062-0.313,0.131-1.562,0-2.13c-0.328-1.445,0.018-3.314-0.343-4.777    c0-0.289,0-0.577,0-0.863c-0.211-0.905-0.169-2.054-0.403-2.994c0-0.192,0-0.383,0-0.577c-0.491-2.114-0.481-3.986-1.039-6.043    c-0.55-2.043-1.156-4.203-1.729-5.986c-0.035-0.229-0.073-0.459-0.112-0.689c-0.205-0.571-1.079-2.53-0.921-3.051    c-0.151-0.023-0.076,0.039-0.11-0.117c-0.251-0.269-0.824-2.324-0.752-2.533c-0.152-0.022-0.074,0.042-0.115-0.116    c-0.319-0.386-0.255-0.982-0.46-1.496c-0.635-1.577-0.751-3.744-1.209-5.239c-0.039-0.382-0.077-0.765-0.116-1.151    c-0.115-0.43-0.307-0.99-0.461-1.382c-0.018-0.134-0.038-0.268-0.054-0.401c-0.632-1.005-1.146-2.492-1.846-3.627    c-0.452-0.739-0.991-1.262-1.496-2.072c-0.562-0.899-0.739-2.018-1.325-2.877c-0.287-0.425-0.803-0.775-1.093-1.211    c-0.24-0.356-0.501-0.748-0.692-1.092c-0.084-0.155-0.219-0.687-0.401-0.922c-0.041-0.051-0.188-0.058-0.231-0.114    c-0.562-0.752-1.093-1.583-1.553-2.417c-0.369,0.075-0.586,0.321-0.862,0.46c-0.704,0.352-1.344,0.63-1.959,1.036    c-0.207,0.137-0.428,0.091-0.633,0.23c-1.031,0.692-2.336,1.151-3.339,1.901c-0.475,0.354-1.485,0.666-2.303,1.092    c-0.21,0.109-0.478,0.356-0.689,0.462c-0.747,0.366-1.545,0.58-2.188,1.036c-0.166,0.117-0.755,0.194-1.092,0.345    c-0.487,0.215-1.149,0.497-1.728,0.747c-0.367,0.163-0.443,0.026-0.805,0.173c-0.902,0.371-1.982,0.748-2.88,1.152    c-0.213,0.097-0.36,0.02-0.576,0.117c-0.913,0.407-1.641,1.225-2.417,1.784c-0.529,0.38-1.136,0.533-1.783,0.806    c-0.395,0.164-1.035,0.634-1.556,0.459c0.02,0.019,0.039,0.038,0.058,0.059c0.111,0.042-0.114,0.056-0.114,0.056    c-0.477,0.356-0.974,0.354-1.671,0.633c-0.494,0.199-1.111,0.426-1.669,0.579c-0.824,0.222-2.418-0.303-2.936-0.521    c-0.281-0.118-0.433-0.048-0.688-0.173c-0.354-0.169-1.282-1.349-1.153-1.494c-0.291-0.277-0.618-0.737-0.807-1.095    c0-0.076,0-0.155,0-0.229c-0.365-0.594-0.813-1.016-1.091-1.612c-0.38-0.809-0.419-1.52-0.634-2.531    c0.018-0.116,0.037-0.235,0.057-0.347c-0.147-0.915,0.078-2.302,0.289-3.282c0.031-0.148-0.063-0.428,0-0.691    c0.328-1.378,0.282-2.854,0.633-4.259c0.213-0.854,0.231-1.742,0.459-2.646c0.124-0.487,0.312-1.058,0.347-1.613    c-0.018,0-0.039,0-0.059,0c-0.018,0.037-0.037,0.078-0.056,0.114c-0.314,0.335-0.663,1.603-1.035,2.13    c-0.488,0.684-1.395,1.182-1.728,1.841c-0.039-0.017-0.077-0.037-0.116-0.056c-0.026,0.528-1.404,1.078-2.012,1.381    c-0.718,0.356-1.465,0.782-2.246,1.21c-0.356,0.191-0.783,0.317-0.979,0.458c-0.531,0.387-1.059,0.245-1.439,0.806    c0.173,0,0.345,0,0.518,0c0.607-0.472,1.689-0.063,2.245,0.117c0.116,0.036,0.433-0.022,0.691,0.057    c0.896,0.268,1.284,0.891,1.322,2.016c0.012,0.283-0.281,0.63-0.172,1.036c0.142,0.515,0.7,1.033,0.748,1.494    c0.165,0.279-0.227,0.869-0.228,0.982c0.114,0.11,0.473,0.198,0.517,0.575c0.108,0.176-0.029,0.38-0.057,0.633    c0.289,0.095,0.294,0.265,0.518,0.343c0.148,0.054,0.342-0.067,0.402-0.057c0.419,0.082,0.992,0.151,1.325,0.232    c0.145,0.197,0.355,0.35,0.46,0.69c0.237,0.761-0.27,1.591-0.46,2.016c-0.191,0.422-0.229,0.791-0.403,1.266    c-0.202,0.55-0.569,1.082-0.749,1.727c-0.175,0.635,0.218,1.085,0.402,1.439c0.118,0.222-0.042,0.792,0.058,1.325    c0.12,0.616,0.453,2.315,0.288,2.992c-0.243,1.003-0.47,1.916-0.978,2.591c-0.288,0.382-0.962,1.119-1.036,1.497    c0.114,0.073-0.008,0.336,0.172,0.576c0.057-0.049,0.015-0.021,0.113-0.059c0.005,0.165,0.023,0.248,0.059,0.345    c0.242-0.021,0.321-0.047,0.346,0.289c-0.082,0.075-0.188,0.471-0.172,0.518c0.109,0.249,0.24,0.117,0.287,0.459    c-0.343,0.13-0.477,0.426-0.748,0.635c0.034,0.119,0.124,0.612,0.058,0.804c-0.029,0.086-0.196,0.236-0.174,0.404    c0.041,0.29,0.19,0.601,0.117,0.979c-0.067,0.014-0.345,0-0.345,0c-0.331,0.18-0.123,0.264-0.635,0.174    c-0.095,0.251-0.09,0.414-0.404,0.46c-0.038-0.009-0.011,0.013-0.115-0.058c-0.004,0.144-0.005,0.214-0.055,0.286    c-0.076-0.143,0.023-0.038-0.116-0.114c0.083,0.369-0.225,0.64-0.46,0.865c-0.908-0.329-0.378-0.666-0.691-1.153    c-0.062-0.042-0.056-0.034-0.172-0.058c-0.061,0.047-0.017,0.022-0.118,0.058c0.003,0.152,0.022,0.066-0.056,0.229    c-0.276-0.104-0.314-0.189-0.633-0.286c-0.048-0.016-0.132,0.137-0.346,0.058c0.011,0.177,0.023,0.043-0.114,0.174    c0.143,0.072,0.039-0.024,0.114,0.114c-0.039,0-0.076,0-0.114,0c-0.04-0.037-0.078-0.075-0.114-0.114c0,0.02,0,0.039,0,0.055    c-0.208,0.129-0.579,0.322-0.692,0.405c0.02,0,0.038,0,0.057,0c-0.019,0.02-0.037,0.037-0.057,0.058    c-0.323,0.338-1.649,1.226-1.957,1.149c0.05,0.192,0.022,0.229-0.059,0.405c-0.039,0-0.075,0-0.114,0    c-0.065-0.194-0.066-0.19-0.288-0.23c-0.18,0.222-0.605,0.283-0.749,0.516c0.043,0.072,0.01,0.059,0,0.234    c-0.12-0.021-0.111-0.015-0.171-0.059c-0.02-0.019-0.039-0.041-0.06-0.057c0.135-0.065,0.104-0.058,0.174-0.176    c-0.02,0-0.039,0-0.058,0c-0.373,0.257-0.835-0.01-1.038,0.115c-0.107,0.071-0.498,0.432-0.573,0.462    c-0.059-0.017-0.117-0.038-0.176-0.057c-0.165,0.039-0.287,0.168-0.4,0.229c-0.146-0.009-0.129-0.109-0.231-0.057    c-0.081,0.129-0.172,1.912-0.057,2.418c0.444,1.939,0.057,4.312,0.518,6.217c0,0.209,0,0.422,0,0.632    c0.223,0.975,0.051,1.751,0.288,2.764c0.354,1.519,0.386,4.705,0.059,6.274c0,0.366,0,0.729,0,1.095    c-0.094,0.413-0.078,1.023-0.176,1.438c0,0.808,0,1.612,0,2.419c-0.296,1.31-0.138,3.551,0.117,4.776    c0.163,0.784-0.461,1.702-0.518,2.36c0.838-0.021,1.517,0.335,1.727,0.633c0.497,0.534,0.344,2.448,0.344,3.8    c0,0.409,0.098,1.077-0.057,1.382c-0.216,0.43-0.797,0.85-1.036,1.209c0.237,0.04,0.285,0.059,0.403,0.231    c0.306,0.34,0.579,2.612,1.15,2.646c0.138,0.087,0.811,0.058,1.209,0.058c1.018,0,2.034,0,3.051,0c3.377,0,6.754,0,10.131,0    c0.932,0.163,2.246-0.151,2.763,0.058c0-0.02,0-0.037,0-0.058c0.037-0.079,0.077-0.062,0.345-0.058c0.24,0.136,1.939,0,2.591,0    c2.334,0,4.843-0.106,7.079-0.057c0.301,0.008,0.771,0.084,1.154,0c2.974,0,5.948,0,8.921,0c5.834-0.04,11.668-0.078,17.499-0.117    c-0.08-0.395-0.447-0.717-0.631-1.033c-0.02-0.116-0.041-0.232-0.06-0.347c-0.139-0.194-0.336-0.076-0.461-0.291    c-0.147-0.249-0.05-0.472-0.171-0.631c-0.272-0.359-0.61-0.828-0.807-1.095c-0.078-0.103-0.113-0.397-0.115-0.403    c-0.183-0.182-0.322-0.255-0.402-0.461c-0.104-0.259,0.052-1.758,0.112-2.011C131.094,154.062,131.094,153.698,131.094,153.333z     M77.561,120.349c-0.038,0-0.076,0-0.114,0c0-0.037,0-0.078,0-0.114c0.039,0,0.077,0,0.114,0    C77.561,120.271,77.561,120.312,77.561,120.349z M79.057,120.002c-0.091,0.187-0.077,0.209-0.344,0.232c0-0.02,0-0.039,0-0.057    c0.094-0.037,0.164-0.131,0.23-0.291c0.072,0.038,0.118,0.063,0.171,0.115C79.097,120.002,79.078,120.002,79.057,120.002z     M79.173,119.887c0-0.02,0-0.037,0-0.056c0.1-0.035,0.056-0.011,0.114-0.057C79.388,119.902,79.316,119.968,79.173,119.887z     M79.517,119.718c0-0.041,0-0.08,0-0.119c0.046,0.062,0.023,0.018,0.058,0.119C79.557,119.718,79.539,119.718,79.517,119.718z     M86.599,117.299c-0.02,0.02-0.04,0.038-0.057,0.056c-0.101-0.036-0.057-0.011-0.115-0.056c-0.045-0.061-0.021-0.017-0.056-0.116    c0.075,0,0.151,0,0.229,0C86.599,117.219,86.599,117.26,86.599,117.299z M87.808,113.671c-0.118,0.114-0.109-0.059-0.115-0.115    c0.059,0.018,0.115,0.037,0.173,0.056C87.846,113.634,87.826,113.651,87.808,113.671z"
         id="path30" /><path
         fill="#FF6418"
         d="M114.459,169.28c0.061,0.044,0.016,0.018,0.116,0.056C114.515,169.288,114.559,169.314,114.459,169.28z"
         id="path32" /><path
         fill="#FF6418"
         d="M151.072,150.571c0.057,0.046,0.014,0.019,0.113,0.056C151.127,150.581,151.171,150.606,151.072,150.571z"
         id="path34" /><path
         fill="#FF6418"
         d="M113.941,169.28c0.058,0.044,0.018,0.018,0.114,0.056C113.997,169.288,114.042,169.314,113.941,169.28z"
         id="path36" /><path
         fill="#FF6418"
         d="M60.982,101.179c-0.039,0-0.076,0-0.114,0c-0.031,0.004-0.055,0.008-0.084,0.013    C60.856,101.23,60.897,101.232,60.982,101.179z"
         id="path38" /><path
         fill="#FF6418"
         d="M57.702,151.087c1.042-0.315,2.043-1.027,3.166-1.208c0.346,0.057,0.69,0.114,1.037,0.174    c0.497,0.018,0.999,0.038,1.496,0.058c0.309,0.065,0.859,0.155,1.153,0.172c0.646,0.033,2.061-0.531,2.648-0.691    c0.363-0.1,0.875,0.084,1.148,0.059c0.461-0.077,0.925-0.154,1.385-0.229c0.025-0.979-0.123-1.734-0.346-2.708    c-0.02-0.362-0.04-0.729-0.059-1.093c-0.172-0.749-0.237-1.893-0.403-2.59c-0.019-0.325-0.038-0.655-0.057-0.979    c-0.358-1.518-0.486-3.168-0.862-4.664c-0.02-0.268-0.041-0.536-0.057-0.804c-0.277-1.077-0.505-2.623-0.807-3.745    c-0.078-0.689-0.156-1.38-0.232-2.068c-0.259-0.94-0.386-1.896-0.46-2.938c-0.036-0.542-0.165-1.455-0.286-2.011    c-0.02-0.521-0.04-1.04-0.06-1.559c-0.068-0.321-0.145-1.028-0.056-1.438c0.13-0.594,0.205-1.037,0.229-1.498    c-0.018-0.021-0.038-0.037-0.056-0.058c-0.261,0.127-0.468,0.185-0.805,0.115c-0.073-0.137-0.199-0.422-0.232-0.459    c-0.009,0-0.192-0.054-0.403-0.059c0-0.058,0-0.115,0-0.172c-0.689,0.023-1.191,0.072-1.667-0.171    c-0.017,0.148,0.025,0.102-0.231,0.112c-0.291-0.419-0.858-0.229-1.265-0.517c-0.161-0.114-0.023-0.325-0.23-0.461    c-0.059,0-0.118,0-0.174,0c-0.381-0.233-0.722-0.612-1.036-0.919c-0.099-0.101-0.322-0.128-0.403-0.232    c-0.088-0.11-0.045-0.287-0.116-0.403c-0.173-0.172-0.345-0.346-0.517-0.518c-0.273-0.402-0.369-0.85-0.633-1.268    c-0.289-0.455-0.564-0.649-0.692-1.208c0.02,0,0.04,0,0.057,0c0.095,0.156,0.193,0.251,0.347,0.344c0-0.056,0-0.113,0-0.171    c-0.219-0.333-0.001-0.847-0.172-1.268c-0.084-0.208-0.385-0.404-0.461-0.633c-0.174-0.528,0.184-0.883,0.116-1.382    c-0.095-0.682,0.142-1.592,0.114-2.476c0.147-0.061,0.171-0.083,0.231-0.229c-0.038,0-0.077,0-0.114,0c0,0.018,0,0.035,0,0.055    c-0.041-0.02-0.077-0.037-0.117-0.055c0.002,0.114,0.061,0.013,0,0.114c-0.103,0.096-0.237,0.137-0.403,0.173    c0-0.039,0-0.077,0-0.114c0.044-0.063,0.036-0.057,0.06-0.173c0.038,0.018,0.077,0.035,0.114,0.055c0-0.02,0-0.037,0-0.055    c-0.041-0.091-0.007-0.01,0-0.175c0.058-0.036,0.116-0.076,0.174-0.115c0-0.017,0-0.038,0-0.057    c0.037,0.019,0.076,0.04,0.112,0.057c0-0.017,0-0.038,0-0.057c-0.071-0.062,0.108-0.236,0.175-0.345    c-0.131-0.083-0.175-0.122-0.231-0.288c0.04,0.019,0.077,0.039,0.117,0.057c0-0.019,0-0.038,0-0.057    c0.005-0.026,0.043-0.067,0.114-0.173c0.092,0.033,0.139,0.046,0.288,0.058c0.028-0.641,0.105-0.981,0.287-1.38    c0.04,0.02,0.077,0.038,0.117,0.055c0-0.017,0-0.035,0-0.055c-0.02-0.019-0.04-0.039-0.06-0.058    c0.594-0.089,0.783-0.479,1.209-0.692c0.031-0.526,0.19-1.226,0-1.783c0.511-0.254,0.501-0.969,1.094-1.039    c0,0.04,0,0.078,0,0.115c-0.134,0.118-0.223,0.202-0.401,0.291c0.035,0.15,0.025,0.108,0,0.287c0.017,0,0.036,0,0.056,0    c0.172-0.128,0.398-0.167,0.691-0.174c0.13,0.146,0.293,0.296,0.519,0.346c0.018-0.229,0.037-0.458,0.057-0.689    c-0.204-0.105-0.544-0.163-0.635-0.404c0.041,0,0.078,0,0.118,0c0.126-0.089,0.309-0.077,0.4-0.056    c-0.014-0.124,0.088-0.189,0.06-0.347c-0.029-0.155-0.124-0.13-0.116-0.288c-0.151-0.021-0.076,0.044-0.114-0.113    c-0.622-0.048-0.952-0.524-1.153-0.981c0.05-0.002,0.174-0.022,0.321-0.045c-0.011-0.006-0.018-0.004-0.031-0.013    c0.038,0,0.077,0,0.115,0c0.208-0.03,0.46-0.06,0.688-0.057c0.237,0.153,0.573,0.063,0.749,0.115    c0.353,0.111,0.34,0.385,0.863,0.348c0,0.114-0.059,0.014,0,0.114c0.096-0.009,0.171,0.06,0.347,0.113    c0.059-0.146,0.083-0.167,0.229-0.228c0.131,0.172,0.074,0.124,0.289,0.114c0.05-0.184,0.11-0.245,0.23-0.346    c-0.126-0.696,0.489-1.966,0.75-2.648c0.101,0.056,0.094,0.072,0.228,0.115c0.075-0.214,0.199-0.252,0.348-0.229    c0-0.018,0-0.04,0-0.059c-0.073-0.137,0.031-0.151,0.115-0.287c-0.073-0.036-0.119-0.062-0.173-0.114    c0.125-0.149,0.198-0.333,0.231-0.576c0.24,0.005,0.307,0.044,0.459,0.116c0-0.039,0-0.078,0-0.116    c-0.25-0.327-0.225-1.047-0.288-1.381c-0.189-1.002-0.284-2.585-0.116-3.626c0.21-1.304,0.877-2.895,0.347-4.204    c-0.849-0.354-1.745-1.759-1.556-2.935c0.055-0.344,0.291-1.036,0.172-1.555c-0.099-0.44-0.427-1.079-0.344-1.439    c-0.02,0.019-0.039,0.039-0.058,0.059c-0.045,0.111-0.058-0.115-0.058-0.115c-0.186-0.235-0.144-0.577-0.23-0.92    c-0.343-1.354-0.101-3.288,0.461-4.435c0.438-0.894,0.585-2.015,1.036-3.108c0.267-0.643,0.472-1.228,0.862-1.785    c0.057-0.08,0.136-0.61,0.231-0.862c0.185-0.508,0.475-1.171,0.631-1.553c0.042-0.192,0.078-0.384,0.116-0.576    c0.718-1.469,1.467-3.33,2.36-5.009c0.145-0.272,0.843-1.82,0.807-1.9c0.388-0.562,0.771-0.991,1.035-1.438    c0.256-0.43,0.362-1.103,0.922-1.209c0-0.057,0-0.116,0-0.173c0.638-0.439,1.288-1.552,1.784-2.188    c0.021,0.021,0.038,0.04,0.058,0.06c0.04-0.02,0.078-0.039,0.113-0.06c-0.018-0.038-0.035-0.075-0.055-0.114    c0.1-0.082,0.272-0.127,0.344-0.23c-0.019-0.039-0.038-0.076-0.056-0.117c0.841-1.033,1.747-1.995,2.534-2.819    c0.161-0.17,1.002-1.122,1.092-1.036c0.177-0.247,0.546-0.798,0.807-0.748c0-0.021,0-0.041,0-0.058c-0.021,0-0.039,0-0.058,0    c0.359-0.431,1.192-1.117,1.727-1.498c0.209-0.149,0.407-0.505,0.634-0.46c0-0.018,0-0.037,0-0.056    c-0.081-0.028,0.322-0.271,0.402-0.347c0.166-0.149,1.073-1.013,1.21-1.036c0.019,0.031,0.8-0.609,1.209-1.036    c0.113-0.118,0.69-0.404,0.69-0.404c0.432-0.477,0.975-1.041,1.322-1.322c0.104-0.083,0.333-0.13,0.404-0.232    c0.041-0.248,0.078-0.498,0.117-0.749c0.152-0.17,0.305-0.345,0.459-0.518c0.423,0,0.845,0,1.266,0    c0.273-0.352,1.02-0.65,1.152-0.863c0.02-0.113,0.038-0.231,0.057-0.345c0.094-0.203,0.236-0.155,0.346-0.346    c0.188-0.324,0.031-0.56,0.404-0.749c0.485-0.244,1.295,0.015,1.784-0.347c0.084-0.06,1.304-0.898,1.496-0.802    c0.609-0.477,1.044-0.653,1.728-1.038c0.197-0.11,0.558-0.426,0.749-0.346c2.415-1.607,4.929-2.284,6.733-3.511    c0.251-0.17,0.667,0.068,0.808,0.117c0.379-0.15,0.771-0.22,1.034-0.345c0-0.059,0-0.116,0-0.174    c0.584,0.031,1.096-0.218,1.729-0.402c0.293-0.087,0.851-0.109,1.036-0.06c0.729-0.28,1.853-0.297,2.59-0.459    c0.542-0.119,1.142,0.079,1.556,0.117c1.646,0.138,3.438,0.315,4.832,0.805c0.135,0,0.271,0,0.404,0    c0.287,0.14,0.729,0.273,0.979,0.459c0,0,0.279,0.007,0.29,0c0.55,0.501,1.534,0.662,2.415,1.324    c1.521,1.142,3.196,2.804,4.491,4.316c0.093,0.111,0.227,0.401,0.172,0.462c0.867,0.828,1.73,2.826,2.244,4.087    c0.232,0.568,0.431,1.373,0.636,2.015c0.017,0.174,0.036,0.345,0.057,0.517c0.078,0.06,0.154,0.116,0.229,0.174    c-0.018,0.037-0.039,0.076-0.057,0.114c0.079,0.174,0.405,1.631,0.403,1.784c-0.004,0.153-0.185,0.174-0.172,0.348    c0.024,0.376,0.301,0.933,0.227,1.266c0.841,2.474,1.212,5.132,2.075,7.541c0.182,0.509,0.082,0.981,0.289,1.498    c0.22,0.558,0.444,1.31,0.688,1.839c0.378,0.815,0.615,1.662,0.979,2.42c0.082,0.166,0.008,0.344,0.06,0.402    c0-0.019,0-0.037,0-0.058c0.02,0.021,0.038,0.039,0.057,0.058c0.067,0.09,0.048,0.392,0.057,0.403    c0.259-0.04,0.271,0.47,0.402,0.75c0.404,0.843,0.892,1.822,1.094,2.819c0.021,0,0.038,0,0.058,0c0-0.018,0-0.038,0-0.057    c0.458-0.34,0.569-0.975,1.152-1.209c0.306-0.02,0.614-0.039,0.92-0.058c1.5-0.306,2.592,0.682,3.685,0.979    c-0.003,0.168-0.057,0.078,0,0.172c0.178-0.095,0.825,0.327,0.923,0.52c-0.02,0.02-0.041,0.036-0.061,0.056    c0.469-0.099,0.648,0.486,0.92,0.689c0.324,0.242,0.43,0.463,0.692,0.749c0.202,0.22,0.616,0.107,0.865,0.29    c0.068,0.05,0.092,0.236,0.17,0.288c0.445,0.095,0.885,0.191,1.325,0.286c0.827-0.127,1.604-0.579,2.245-1.093    c0.152-0.121,0.345-0.057,0.521-0.174c0.059-0.04,0.077-0.191,0.171-0.229c0.112,0,0.232,0,0.347,0    c0.257-0.09,0.562-0.289,0.688-0.403c0.041,0.02,0.077,0.038,0.117,0.058c0.428-0.463,2.117-0.79,2.819-0.404    c0-0.017,0-0.038,0-0.057c0.018-0.037-0.018-0.025,0.059-0.056c0.146,0.099,0.434,0.146,0.633,0.171    c-0.02,0.039-0.041,0.077-0.06,0.115c0.019,0,0.04,0,0.06,0c0.219-0.092,0.253,0.189,0.573,0.116    c0.125-0.028,0.443-0.203,0.577-0.23c0.23-0.045,2.015,0.034,2.246,0.115c0.177,0.062,0.361,0.277,0.52,0.346    c0.235,0.107,0.438,0.046,0.633,0.17c0.057,0.078,0.112,0.155,0.171,0.232c0.133,0,0.271,0,0.404,0    c0.407,0.122,0.591,0.389,0.863,0.634c0.032,0.438-0.013,0.745-0.118,0.979c-0.166,0.068-0.218,0.159-0.573,0.17    c0,0.079,0,0.154,0,0.231c-0.156,0.134-0.306,0.27-0.462,0.404c-0.3-0.012-0.995-0.211-1.093-0.175    c-0.224,0.084-0.511,0.361-0.748,0.461c-0.154,0.02-0.308,0.04-0.46,0.058c-0.188,0.095-0.342,0.33-0.519,0.459    c-0.665,0.076-1.287,0.634-1.841,0.979c-0.3,0.186-0.648,0.175-0.979,0.348c-0.472,0.239-1.012,0.654-1.497,0.861    c-0.591,0.255-1.398,0.835-2.071,1.324c-0.099,0.073-0.407,0.174-0.407,0.174c-0.465,0.514-1.019,1.131-1.552,1.498    c-0.864,0.6-1.857,0.934-2.82,1.323c-0.136,0.021-0.269,0.039-0.403,0.059c-1.384,0.667-3.132,1.41-4.95,1.782    c0,0.077,0,0.155,0,0.231c0.123,0.172,0.085,0.336,0.174,0.576c0.136,0.368,0.422,0.907,0.518,1.265    c0.062,0.234,0.085,0.627,0.229,0.979c0.18,0.433,0.491,1.265,0.692,1.844c0.164,0.476,0.146,0.928,0.344,1.381    c0.223,0.506,0.591,1.079,0.807,1.611c0.158,0.395,0.104,0.791,0.287,1.152c0.241,0.479,0.723,1.046,0.979,1.612    c0.039,0.086,0.118,0.491,0.173,0.575c0-0.019,0-0.037,0-0.056c0.019,0.019,0.038,0.038,0.059,0.056    c0.616,0.82,0.616,1.571,1.209,2.535c0,0.075,0,0.155,0,0.229c0.062,0.174,0.302,0.876,0.402,1.035    c0.286,0.466,0.546,1.167,0.862,1.958c0.047,0.121,0.235,0.288,0.29,0.401c0.28,0.592,0.293,0.969,0.631,1.441    c0.09,0.124,0.124,0.569,0.234,0.864c0.246,0.678,0.641,1.62,0.919,2.475c0.432,1.345,0.362,2.715,0.688,4.028    c0.243,0.965-0.15,2.375-0.172,3.341c-0.038-0.02-0.077-0.04-0.113-0.059c0,0.019,0,0.039,0,0.059    c0.18,0.295-0.01,0.781-0.06,1.149c0.039,0.904,0.077,1.803,0.115,2.707c0.147,0.644,0.103,1.342,0.229,1.9    c0.038,0.157-0.068,0.508,0,0.804c0.412,1.757,0.329,4.014,0.865,5.931c0.02,0.27,0.037,0.539,0.058,0.807    c0.267,1.056,0.366,2.045,0.691,2.991c0.088,0.258,0.434,0.829,0.345,1.037c0.127,0.204,0.777,1.567,0.691,1.671    c0.124,0.134,0.268,0.274,0.345,0.459c0,0.078,0,0.154,0,0.23c0.103,0.155,0.237,0.014,0.345,0.173    c0.021,0.114,0.04,0.23,0.059,0.345c0.115,0.218,0.48,0.227,0.632,0.405c0,0.058,0,0.114,0,0.172    c0.116,0.114,0.231,0.23,0.347,0.346c0,0.02,0,0.037,0,0.056c0.114,0.021,0.232,0.04,0.344,0.058    c0.178,0.102,0.191,0.407,0.347,0.519c0.469,0.343,0.844,0.77,1.211,1.209c0.089,0.108,0.302,0.451,0.229,0.518    c0.167,0.133,0.323,0.194,0.402,0.405c0.389,1.046-0.192,2.322-0.519,3.049c-0.484,1.081-1.131,2.243-2.072,2.936    c-0.109,0.08-0.26,0.19-0.347,0.115c-0.663,0.721-1.36,1.128-1.955,1.958c-0.085,0.121-0.307,0.123-0.402,0.229    c-0.038,0.173-0.08,0.345-0.115,0.518c-0.051,0.077-0.164,0.058-0.23,0.176c-0.264,0.444-0.198,1.009-0.346,1.553    c-0.354,1.314-0.565,2.403-1.035,3.396c1.898,0,3.797,0,5.695,0c0.426-0.266,1.884,0.06,2.364,0    c1.941-0.249,4.725-0.058,6.964-0.058c0.436,0,17.799-0.238,34.08-0.481c6.447-13.204,10.069-28.04,10.069-43.723    c0-55.108-44.673-99.781-99.78-99.781c-55.108,0-99.782,44.673-99.782,99.781c0,15.996,3.77,31.108,10.459,44.507    C34.591,150.9,56.146,151.087,57.702,151.087z M61.328,120.062c-0.02,0.119-0.015,0.109-0.059,0.172    c-0.036-0.057-0.078-0.115-0.114-0.172C61.213,120.062,61.269,120.062,61.328,120.062z M60.982,119.774    c0.102-0.036,0.056-0.014,0.115-0.057c0.093,0.076,0.064,0.033,0.116,0.169c-0.077,0-0.153,0-0.23,0    C60.982,119.85,60.982,119.81,60.982,119.774z"
         id="path40" /><path
         fill="#FF6418"
         d="M152.107,173.596c0.057,0.045,0.015,0.021,0.115,0.056C152.162,173.607,152.205,173.634,152.107,173.596z"
         id="path42" /><path
         fill="#FF6418"
         d="M129.942,166.916c0-0.036,0-0.076,0-0.113c-0.018,0-0.035,0-0.058,0c0,0.037,0,0.077,0,0.113    C129.907,166.916,129.925,166.916,129.942,166.916z"
         id="path44" /><path
         fill="#FF6418"
         d="M152.625,173.712c-1.61,0.017-3.223,0.037-4.836,0.058c-0.115,0.113-0.229,0.228-0.346,0.343    c-0.259,0.162-0.433,0.076-0.633,0.232c-0.19,0.316-0.099,0.718-0.459,0.863c-0.301,0.243-0.637,0.215-1.096,0.173    c-0.015-0.285-0.189-0.042-0.344-0.23c-0.184-0.223,0.044-0.483-0.231-0.636c-0.069-0.045-0.055-0.017-0.171-0.057    c-0.133-0.245-0.317-0.527-0.579-0.634c-1.205,0-2.416,0-3.625,0c-0.159,0.099-1.553,0.059-1.553,0.059    c-0.023,0.147,0.031,0.091-0.175,0.114c-0.229-0.014-0.708,0.143-1.035,0.176c-0.202,0.018-0.371-0.209-0.577-0.29    c-2.226,0.039-4.449,0.078-6.674,0.114c-0.128,0.27-0.201,0.904-0.287,1.04c-0.12,0.171-0.338,0.246-0.463,0.399    c-0.075,0.096-0.075,0.221-0.173,0.289c-1.446,0.995-3.135-0.07-3.11-1.729c-1.965-0.004-4.822,0.11-6.791,0.115    c-1.528,0.008-3.36-0.196-4.776,0.061c-1.557,0-3.109,0-4.664,0c-1.683,0.002-4.113,0.044-6.217,0.057    c-6.046,0.038-12.035,0.171-18.132,0.171c-5.68,0.02-11.361,0.04-17.041,0.058c-0.02,0.057-0.039,0.113-0.058,0.174    c-0.277,0.12-0.32-0.126-0.403-0.174c-0.5,0-0.997,0-1.495,0c-1.233,0.025-2.505,0.058-3.914,0.057    c-0.021,0.021-0.04,0.04-0.059,0.057c-0.011,0.407-0.092,0.488-0.231,0.81c-0.217-0.004-0.211,0.133-0.402,0.229    c-0.161,0.083-0.462-0.029-0.519,0c-0.056,0.097-0.115,0.194-0.17,0.287c-0.234,0.206-0.603,0.23-1.037,0.231    c-0.128-0.178-0.307-0.144-0.461-0.288c-0.025-0.023-0.101-0.745-0.172-0.92c-0.209-0.092-0.305-0.058-0.46-0.231    c-0.02-0.057-0.039-0.117-0.057-0.174c-2.51,0-17.982,0.02-24.816,0.026c18.202,19.381,44.057,31.49,72.744,31.49    c29.593,0,56.173-12.887,74.445-33.35C171.985,173.018,155.744,173.712,152.625,173.712z"
         id="path46" /><path
         fill="#FF6418"
         d="M85.679,117.126c-0.021,0-0.042,0-0.058,0c-0.057-0.047-0.017-0.022-0.117-0.06    c0,0.152-0.011,0.088,0.175,0.173C85.679,117.201,85.679,117.161,85.679,117.126z"
         id="path48" /><path
         fill="#FF6418"
         d="M84.236,117.299c0,0.056,0,0.113,0,0.174c0.122-0.024,0.112-0.016,0.174-0.061    C84.354,117.374,84.297,117.337,84.236,117.299z"
         id="path50" /><path
         fill="#FF6418"
         d="M112.906,174.057c0.059,0.046,0.016,0.02,0.113,0.056C112.962,174.068,113.005,174.093,112.906,174.057z"
         id="path52" /><path
         fill="#FF6418"
         d="M91.779,169.624c0.058,0.047,0.016,0.02,0.116,0.056C91.835,169.633,91.879,169.663,91.779,169.624z"
         id="path54" /><path
         fill="#FF6418"
         d="M99.723,169.508c0.059,0.047,0.015,0.022,0.115,0.06C99.78,169.52,99.823,169.544,99.723,169.508z"
         id="path56" /><path
         fill="#FF6418"
         d="M108.53,169.393c0-0.039,0-0.076,0-0.112c-0.02,0-0.039,0-0.056,0c0,0.036,0,0.073,0,0.112    C108.491,169.393,108.51,169.393,108.53,169.393z"
         id="path58" /><path
         fill="#FF6418"
         d="M95.349,169.567c0.058,0.043,0.015,0.022,0.114,0.057C95.404,169.577,95.448,169.603,95.349,169.567z"
         id="path60" /><path
         fill="#FF6418"
         d="M115.555,76.6c-0.211-0.343-0.502-1.05-0.75-1.152c-0.688,1.034-1.938,2.535-2.648,3.741    c-0.273,0.466-0.655,0.611-0.863,1.152c0.019,0,0.037,0,0.056,0c0.19-0.142,0.359-0.084,0.635-0.172    c1.237-0.391,2.306-0.503,3.682-0.807c0.55-0.121,1.368,0.099,1.787-0.173c-0.357-0.131-0.307-0.427-0.519-0.69    c-0.218-0.272-0.469-0.585-0.692-0.863c0.021-0.039,0.039-0.076,0.06-0.114c-0.105-0.104-0.268-0.225-0.347-0.346    c0-0.058,0-0.116,0-0.174C115.883,76.91,115.635,76.732,115.555,76.6z"
         id="path62" /></g></g><g
     id="Layer_2"
     display="none"><g
       display="inline"
       id="g71"><circle
         fill="none"
         cx="107.125"
         cy="106.25"
         r="74.75"
         id="circle67" /><path
         fill="#FF6418"
         d="M107.126,6.469c-55.108,0-99.782,44.673-99.782,99.781c0,55.109,44.673,99.781,99.782,99.781    c55.107,0,99.78-44.672,99.78-99.781C206.906,51.143,162.233,6.469,107.126,6.469z M107.125,181    c-41.284,0-74.75-33.467-74.75-74.75c0-41.284,33.466-74.75,74.75-74.75c41.283,0,74.75,33.466,74.75,74.75    C181.875,147.533,148.408,181,107.125,181z"
         id="path69" /></g></g><g
     id="Layer_4"
     display="none" /><g
     id="Layer_13"
     display="none"><g
       display="inline"
       id="g81"><polygon
         fill="#FF6418"
         points="116.034,42.767 123.114,37.369 118.236,34.544 110.611,38.741 106.231,41.466 109.26,43.454   "
         id="polygon75" /><path
         fill="#FF6418"
         d="M107.126,6.469c-55.108,0-99.782,44.673-99.782,99.781c0,55.109,44.673,99.781,99.782,99.781    c55.107,0,99.78-44.672,99.78-99.781C206.906,51.143,162.233,6.469,107.126,6.469z M107.439,31.331    c11.391,0,22.141,2.634,31.78,7.181l-2.677,0.397l-7.319-1.12l-5.184,3.464l-3.672,4.05l-13.332,1.254l-5.494-0.904l-1.705,2.682    c-1.184-5.827-3.978-11.078-7.863-15.329C96.969,31.951,102.133,31.331,107.439,31.331z M68.173,27.375    c15.134,0,27.399,12.269,27.399,27.417c0,22.763-27.399,50.045-27.399,50.045S40.751,78.859,40.751,54.792    C40.751,39.643,53.019,27.375,68.173,27.375z M116.814,180.004c-3.078,0.378-6.204,0.638-9.375,0.638    c-41.231,0-74.646-33.439-74.646-74.675c0-11.532,2.678-22.402,7.365-32.152c7.863,18.512,23.752,33.747,24.629,34.599    l3.458,3.269l3.387-3.364c0.355-0.354,3.267-3.299,7.127-7.917l7.885,10.71h1.8v-5.146l4.145,8.649l12.409,2.773l5.612,5.613    l4.973,1.513l-4.973,10.397L116.034,145c0,0,3.434,11.604,3.434,12.055c0,0.473-3.434,13.9-3.434,13.9L116.814,180.004z     M124.962,178.512l1.374-4.95l12.812-8.55l3.362-9.164l8.857-4.121l8.382-16.033l-12.977-7.625l-6.701-7.649l-3.978-0.449    l-7.936-2.133l-6.844-1.089l-5.991,1.681l-3.669-4.119l-3.671-1.066l0.331-5.496l-4.428,0.142l-2.534,2.916l-1.444-6.104    l5.801-2.76l5.945,2.76h3.22l1.16-4.75l8.904-10.696l12.386-6.258l7.176,0.929l0.639-3.504l-8.88-9.03l-3.364-6.696h-4.901    l-3.055-1.775l-6.561-0.995l-1.372,7.815l-7.936-1.54l-0.616-4.885l6.111-1.391l2.012-8.745l6.063,2.499l-0.167,3.737l4.617,1.912    l3.08,0.905l3.789-1.973l-3.364-3.978l-6.867-6.695l0.169-3.226l7.009,1.38l5.944,5.352l1.846,4.735l1.374,4.434l9.475,8.543    l2.436,0.788l3.34-5.382l11.912-1.07l2.227-0.706c7.98,11.864,12.645,26.163,12.622,41.556    C182.082,141.189,157.715,170.623,124.962,178.512z"
         id="path77" /><path
         fill="#FF6418"
         d="M87.257,55.228c0-10.619-8.604-19.229-19.229-19.229c-10.617,0-19.222,8.61-19.222,19.229    c0,10.621,8.605,19.224,19.222,19.224C78.654,74.452,87.257,65.849,87.257,55.228z M54.999,62.607    c9.804,7.992,16.02,2.047,16.124-3.472c0.111-5.819-5.978-8.449-9.605-6.97c2.051-1.723,4.626-1.929,7.026-0.88    c-1.647-5.728-7.754-8.164-13.25-5.929c8.275-5.285,16.404,2.604,18.048,8.764c0,0,1.333-3.585,4.702-4.694    c-0.708-1.44,0.81-2.79,0.81-2.79s-0.579,1.618,1.546,2.284c3.021,0.585,2.277,3.492,2.277,3.492s-0.695-1.494-2.89-0.934    c-2.717,0.694-2.291,5.988-3.703,9.627C73.262,69.47,60.351,72.26,54.999,62.607z"
         id="path79" /></g></g><g
     id="Layer_6"
     display="none"><g
       display="inline"
       id="g114"><rect
         x="74.99"
         y="76.738"
         fill="#FF6418"
         width="9.712"
         height="17.285"
         id="rect84" /><rect
         x="74.99"
         y="104.412"
         fill="#FF6418"
         width="9.712"
         height="17.286"
         id="rect86" /><rect
         x="89.557"
         y="104.412"
         fill="#FF6418"
         width="9.71"
         height="17.286"
         id="rect88" /><rect
         x="60.425"
         y="104.412"
         fill="#FF6418"
         width="9.709"
         height="17.286"
         id="rect90" /><rect
         x="89.557"
         y="76.738"
         fill="#FF6418"
         width="9.71"
         height="17.285"
         id="rect92" /><rect
         x="115.388"
         y="76.738"
         fill="#FF6418"
         width="9.71"
         height="17.285"
         id="rect94" /><rect
         x="115.388"
         y="104.412"
         fill="#FF6418"
         width="9.71"
         height="17.286"
         id="rect96" /><rect
         x="60.425"
         y="76.738"
         fill="#FF6418"
         width="9.709"
         height="17.285"
         id="rect98" /><rect
         x="144.518"
         y="76.738"
         fill="#FF6418"
         width="9.711"
         height="17.285"
         id="rect100" /><path
         fill="#FF6418"
         d="M107.126,6.469c-55.108,0-99.782,44.673-99.782,99.781c0,55.109,44.673,99.781,99.782,99.781    c55.107,0,99.78-44.672,99.78-99.781C206.906,51.143,162.233,6.469,107.126,6.469z M172.727,158.5h-130.8v-10.488h6.281V61.647    h14.556L79.93,44.48l17.167,17.167h20.457l17.17-17.167l17.166,17.167h14.556v86.364h6.281V158.5z"
         id="path102" /><rect
         x="144.518"
         y="104.412"
         fill="#FF6418"
         width="9.711"
         height="17.286"
         id="rect104" /><rect
         x="129.951"
         y="104.412"
         fill="#FF6418"
         width="9.71"
         height="17.286"
         id="rect106" /><rect
         x="109.172"
         y="129.789"
         fill="#FF6418"
         width="19.059"
         height="18.223"
         id="rect108" /><rect
         x="129.951"
         y="76.738"
         fill="#FF6418"
         width="9.71"
         height="17.285"
         id="rect110" /><rect
         x="86.425"
         y="129.789"
         fill="#FF6418"
         width="19.056"
         height="18.223"
         id="rect112" /></g></g><g
     id="Layer_7"
     display="none"><g
       display="inline"
       id="g121"><path
         fill="#FF6418"
         d="M155.425,81.632c-8.295-2.605-6.035-8.921-6.035-8.921s-5.938,5.266-3.164,10.899    c-13.168,4.321-18.37,18.334-18.37,18.334c-6.418-24.063-38.154-54.878-70.471-34.225c21.457-8.732,45.313,0.775,51.749,23.147    c-9.375-4.093-19.431-3.289-27.457,3.437c14.172-5.77,37.956,4.499,37.514,27.207c-0.403,21.564-24.676,44.779-62.95,13.564    c20.885,37.693,71.315,26.811,82.335-5.859c5.512-14.203,3.858-34.883,14.453-37.6c8.566-2.183,11.289,3.644,11.289,3.644    S167.228,83.91,155.425,81.632z"
         id="path117" /><path
         fill="#FF6418"
         d="M107.126,6.469c-55.108,0-99.782,44.673-99.782,99.781c0,55.109,44.673,99.781,99.782,99.781    c55.107,0,99.78-44.672,99.78-99.781C206.906,51.143,162.233,6.469,107.126,6.469z M107.12,181.336    c-41.469,0-75.079-33.598-75.079-75.072c0-41.479,33.609-75.1,75.079-75.1c41.48,0,75.088,33.62,75.088,75.1    C182.208,147.738,148.601,181.336,107.12,181.336z"
         id="path119" /></g></g><g
     id="Layer_16"
     style="fill:url(#radialGradient6179);fill-opacity:1;fill-rule:nonzero;opacity:1"><path
       fill="#FF6418"
       d="M7.301,106.415c0-55.196,44.725-99.946,99.909-99.946c55.217,0,99.947,44.75,99.947,99.946   c0,55.19-44.73,99.913-99.947,99.913C52.026,206.328,7.301,161.605,7.301,106.415z M171.506,73.625   c-11.041-3.469-8.034-11.875-8.034-11.875s-7.892,7.021-4.21,14.503c-17.515,5.768-24.441,24.398-24.441,24.398   c-8.538-32.01-50.791-73.019-93.804-45.542c28.569-11.619,60.307,1.042,68.876,30.811c-12.48-5.441-25.863-4.378-36.527,4.567   c18.852-7.682,50.504,5.991,49.922,36.234c-0.539,28.68-32.847,59.584-83.8,18.044c27.813,50.164,94.928,35.671,109.588-7.808   c7.345-18.909,5.135-46.429,19.244-50.038c11.401-2.912,15.023,4.852,15.023,4.852S187.219,76.664,171.506,73.625z"
       id="path124"
       style="fill:url(#radialGradient6179);fill-opacity:1;fill-rule:nonzero" /></g><g
     id="Layer_8"
     display="none"><path
       display="inline"
       fill="#FF6418"
       d="M107.126,6.469c-55.108,0-99.782,44.673-99.782,99.781   c0,55.109,44.673,99.781,99.782,99.781c55.107,0,99.78-44.672,99.78-99.781C206.906,51.143,162.233,6.469,107.126,6.469z    M104.727,173.682c-0.426,0.64-1.145,1.024-1.914,1.024H72.371c-1.277,0-2.308-1.034-2.308-2.307v-36.557   c0-3.219,2.607-5.823,5.825-5.823c0.687,0,1.331,0.138,1.94,0.356v-2.3c0-3.215,2.611-5.822,5.821-5.822   c3.218,0,5.828,2.607,5.828,5.822v-3.883c0-3.216,2.604-5.82,5.824-5.82c2.57,0,4.732,1.676,5.501,3.989v-21.101   c0-3.215,2.612-5.826,5.827-5.826c3.212,0,5.824,2.611,5.824,5.826v38.252c0,0.225,0.149,0.426,0.37,0.491   c0.052,0.016,0.098,0.022,0.149,0.022c0.169,0,0.329-0.083,0.428-0.229l6.498-9.752c1.126-1.688,2.976-2.596,4.853-2.596   c1.111,0,2.231,0.315,3.225,0.976c2.681,1.783,3.402,5.396,1.614,8.074L104.727,173.682z M114.899,94.042   c-4.276-4.272-11.726-4.272-16.002,0c-2.137,2.139-3.312,4.981-3.312,8.004c0,1.522,0.302,3.002,0.874,4.369v7.678   c-0.38-0.041-0.769-0.066-1.158-0.066c-0.475,0-0.92,0.109-1.382,0.174c-3.105-3.314-4.848-7.59-4.848-12.155   c0-4.764,1.852-9.245,5.221-12.61c3.368-3.365,7.844-5.222,12.605-5.222c4.764,0,9.245,1.854,12.606,5.222   c3.37,3.365,5.223,7.846,5.223,12.61c0,4.763-1.853,9.242-5.223,12.607c-0.637,0.636-1.472,0.955-2.303,0.955   c-0.136,0-0.267-0.063-0.402-0.078v-8.109c0.892-1.639,1.411-3.458,1.411-5.375C118.21,99.022,117.038,96.182,114.899,94.042z    M124.179,119.331c4.619-4.616,7.159-10.756,7.159-17.285c0-6.531-2.54-12.67-7.159-17.289c-9.531-9.529-25.035-9.527-34.565,0   c-4.619,4.619-7.16,10.758-7.16,17.289c0,5.636,1.993,10.921,5.48,15.246c-0.354,0.375-0.721,0.732-1.015,1.155   c-1.028-0.35-2.129-0.537-3.27-0.537c-1.055,0-2.061,0.188-3.015,0.486c-3.042-4.864-4.696-10.477-4.696-16.35   c0-8.271,3.22-16.049,9.068-21.895c12.072-12.068,31.708-12.068,43.779,0c5.849,5.846,9.069,13.623,9.069,21.895   c0,8.271-3.221,16.045-9.069,21.893c-0.03,0.029-0.072,0.041-0.101,0.065c-1.248-0.529-2.56-0.9-3.934-0.9   c-0.355,0-0.694,0.085-1.047,0.121C122.994,121.979,123.118,120.394,124.179,119.331z M156.208,157.157   c0,6.033-4.891,10.922-10.921,10.922h-31.586l13.434-20.096h17.137c1.314,0,2.381-1.068,2.381-2.381V56.92   c0-1.313-1.066-2.383-2.381-2.383H69.856c-1.317,0-2.381,1.069-2.381,2.383v73.278c-1.088,1.622-1.754,3.549-1.754,5.645v31.728   c-4.501-1.352-7.801-5.473-7.801-10.413V56.14c0-6.032,4.89-10.92,10.923-10.92h76.445c6.03,0,10.921,4.888,10.921,10.92V157.157z"
       id="path127" /></g></svg>